<svg width="66" height="60" viewBox="0 0 66 60" fill="none" xmlns="http://www.w3.org/2000/svg">
<path d="M3.52758 46.7702C2.02415 50.6642 3.96213 55.0396 7.85601 56.543C11.75 58.0465 16.1254 56.1086 17.6288 52.2146C19.1322 48.3206 17.1944 43.9452 13.3004 42.4418C9.40647 40.9384 5.03102 42.8762 3.52758 46.7702Z" fill="#201F22"/>
<path d="M5.65995 47.5935C4.61123 50.3098 5.96305 53.3619 8.6793 54.4106C11.3956 55.4594 14.4477 54.1075 15.4964 51.3913C16.5451 48.675 15.1933 45.6229 12.4771 44.5742C9.76082 43.5254 6.70867 44.8773 5.65995 47.5935Z" fill="#838584"/>
<path d="M6.74116 48.011C5.92294 50.1302 6.9776 52.5114 9.09683 53.3297C11.216 54.1478 13.5971 53.0931 14.4153 50.9739C15.2335 48.8547 14.1789 46.4735 12.0598 45.6553C9.94059 44.8371 7.55938 45.8918 6.74116 48.011Z" fill="#B0AEB1"/>
<path d="M8.44216 48.6678C7.9867 49.8474 8.5738 51.173 9.75346 51.6284C10.9332 52.0839 12.2589 51.4969 12.7144 50.3172C13.1698 49.1375 12.5826 47.812 11.4028 47.3565C10.2232 46.901 8.89762 47.4881 8.44216 48.6678Z" fill="#CCCCCC"/>
<path d="M11.2355 46.4016C11.1281 46.6797 11.2665 46.9923 11.5447 47.0996C11.8228 47.207 12.1354 47.0686 12.2427 46.7905C12.3501 46.5123 12.2117 46.1998 11.9336 46.0924C11.6554 45.985 11.3429 46.1234 11.2355 46.4016Z" fill="#838584"/>
<path d="M8.98793 52.2233C8.88054 52.5014 9.01897 52.8139 9.29711 52.9213C9.57524 53.0287 9.8878 52.8903 9.99519 52.6121C10.1026 52.334 9.96414 52.0215 9.686 51.9141C9.40787 51.8067 9.09531 51.9451 8.98793 52.2233Z" fill="#838584"/>
<path d="M7.47289 48.8722C7.75103 48.9796 8.06358 48.8412 8.17097 48.5631C8.27835 48.2849 8.13992 47.9724 7.86178 47.865C7.58365 47.7576 7.27109 47.896 7.16371 48.1742C7.05632 48.4523 7.19476 48.7649 7.47289 48.8722Z" fill="#838584"/>
<path d="M13.2944 51.1199C13.5726 51.2272 13.8851 51.0888 13.9925 50.8107C14.0999 50.5325 13.9615 50.22 13.6833 50.1126C13.4052 50.0052 13.0926 50.1436 12.9852 50.4218C12.8779 50.6999 13.0163 51.0125 13.2944 51.1199Z" fill="#838584"/>
<path d="M7.98141 51.2733C8.25396 51.1525 8.37708 50.8337 8.25641 50.561C8.13569 50.2884 7.81681 50.1653 7.54415 50.286C7.27156 50.4068 7.14844 50.7257 7.26915 50.9983C7.38998 51.2708 7.70886 51.394 7.98141 51.2733Z" fill="#838584"/>
<path d="M13.6875 48.7459C13.96 48.6252 14.0831 48.3063 13.9625 48.0337C13.8417 47.7611 13.5229 47.638 13.2502 47.7587C12.9776 47.8795 12.8545 48.1984 12.9752 48.4709C13.096 48.7435 13.4149 48.8666 13.6875 48.7459Z" fill="#838584"/>
<path d="M8.85826 46.8724C8.97898 47.145 9.29786 47.2681 9.57052 47.1474C9.84307 47.0267 9.96619 46.7078 9.84552 46.4352C9.72469 46.1626 9.40581 46.0394 9.13326 46.1602C8.86067 46.281 8.73755 46.5999 8.85826 46.8724Z" fill="#838584"/>
<path d="M11.3854 52.5785C11.5061 52.851 11.825 52.9741 12.0976 52.8535C12.3702 52.7328 12.4933 52.4139 12.3726 52.1412C12.2518 51.8686 11.9329 51.7455 11.6604 51.8662C11.3878 51.987 11.2646 52.3059 11.3854 52.5785Z" fill="#838584"/>
<path d="M61.3043 45.2176C58.9434 41.7753 54.239 40.8987 50.7968 43.2596C47.3545 45.6205 46.4778 50.3248 48.8388 53.7671C51.1997 57.2094 55.904 58.0861 59.3463 55.7251C62.7885 53.3643 63.6653 48.6599 61.3043 45.2176Z" fill="#201F22"/>
<path d="M59.4192 46.5105C57.7723 44.1093 54.4907 43.4978 52.0895 45.1447C49.6883 46.7915 49.0768 50.0732 50.7237 52.4743C52.3706 54.8755 55.6522 55.487 58.0534 53.8402C60.4546 52.1933 61.0661 48.9117 59.4192 46.5105Z" fill="#838584"/>
<path d="M58.4636 47.1661C57.1787 45.2927 54.6184 44.8156 52.745 46.1005C50.8717 47.3853 50.3947 49.9455 51.6796 51.8189C52.9645 53.6923 55.5246 54.1695 57.398 52.8846C59.2714 51.5998 59.7485 49.0395 58.4636 47.1661Z" fill="#B0AEB1"/>
<path d="M56.9598 48.1973C56.2446 47.1545 54.8194 46.8889 53.7766 47.6042C52.7336 48.3195 52.468 49.7447 53.1832 50.7876C53.8984 51.8304 55.3237 52.0959 56.3667 51.3806C57.4095 50.6654 57.6751 49.2402 56.9598 48.1973Z" fill="#CCCCCC"/>
<path d="M57.2486 51.7829C57.08 51.537 56.7439 51.4744 56.498 51.643C56.2522 51.8116 56.1895 52.1477 56.3582 52.3936C56.5268 52.6395 56.8629 52.7021 57.1087 52.5334C57.3546 52.3648 57.4172 52.0287 57.2486 51.7829Z" fill="#838584"/>
<path d="M53.7191 46.6365C53.5504 46.3907 53.2144 46.328 52.9685 46.4967C52.7226 46.6653 52.66 47.0014 52.8286 47.2472C52.9973 47.4931 53.3333 47.5557 53.5792 47.3871C53.8251 47.2185 53.8877 46.8824 53.7191 46.6365Z" fill="#838584"/>
<path d="M57.3393 47.2824C57.0935 47.4511 57.0309 47.7871 57.1995 48.033C57.3681 48.2789 57.7042 48.3415 57.9501 48.1729C58.1959 48.0042 58.2585 47.6682 58.0899 47.4223C57.9213 47.1764 57.5852 47.1138 57.3393 47.2824Z" fill="#838584"/>
<path d="M52.1929 50.8121C51.947 50.9807 51.8844 51.3168 52.053 51.5626C52.2216 51.8085 52.5577 51.8711 52.8036 51.7025C53.0494 51.5339 53.1121 51.1978 52.9434 50.9519C52.7748 50.7061 52.4387 50.6434 52.1929 50.8121Z" fill="#838584"/>
<path d="M55.0718 46.3437C55.0172 46.6368 55.2105 46.9187 55.5036 46.9734C55.7966 47.028 56.0785 46.8346 56.1332 46.5415C56.1878 46.2484 55.9944 45.9665 55.7014 45.9119C55.4083 45.8573 55.1264 46.0507 55.0718 46.3437Z" fill="#838584"/>
<path d="M53.9285 52.4788C53.8738 52.7718 54.0672 53.0537 54.3603 53.1084C54.6533 53.163 54.9352 52.9697 54.9899 52.6766C55.0445 52.3834 54.8511 52.1015 54.5581 52.0469C54.265 51.9924 53.9831 52.1857 53.9285 52.4788Z" fill="#838584"/>
<path d="M58.2051 49.5559C57.912 49.5013 57.6301 49.6946 57.5754 49.9877C57.5208 50.2808 57.7142 50.5627 58.0073 50.6174C58.3004 50.6719 58.5823 50.4786 58.6369 50.1855C58.6914 49.8924 58.4981 49.6105 58.2051 49.5559Z" fill="#838584"/>
<path d="M52.0701 48.4126C51.777 48.358 51.4951 48.5514 51.4404 48.8445C51.3858 49.1375 51.5792 49.4194 51.8723 49.4741C52.1654 49.5287 52.4473 49.3353 52.5019 49.0423C52.5564 48.7491 52.3631 48.4672 52.0701 48.4126Z" fill="#838584"/>
<path d="M37.9734 20.3047C37.9552 19.9207 38.2517 19.5947 38.6357 19.5765C39.0197 19.5583 39.3457 19.8548 39.3639 20.2388C39.3821 20.6228 39.0856 20.9489 38.7016 20.967C38.3176 20.9852 37.9915 20.6887 37.9734 20.3047Z" fill="#FFBE9D"/>
<path d="M38.7613 19.5819C38.7613 19.5819 41.6196 19.9228 41.8507 19.9728C42.0818 20.0227 42.9994 20.4062 43.058 20.6779C43.1167 20.9496 43.1092 21.7579 43.1092 21.7579C43.1092 21.7579 42.9535 21.8979 42.8395 21.6388C42.7254 21.3798 42.7158 20.8572 42.7158 20.8572L42.2046 20.6877L42.5015 21.1617L42.6012 22.3003C42.6012 22.3003 42.2489 22.2849 42.168 22.0152C42.0871 21.7454 42.0737 21.4411 42.0737 21.4411L41.6928 21.1482L41.9842 21.5063L42.1155 22.3233C42.1155 22.3233 41.8524 22.4224 41.7598 22.244C41.6672 22.0657 41.6345 21.5228 41.6345 21.5228L40.5846 21.2109L39.9185 21.6243L38.5563 20.9589L38.7613 19.5819Z" fill="#FFBE9D"/>
<path d="M51.5447 38.8991C51.5447 38.8991 58.907 36.6723 61.9519 44.6709L46.5457 49.4425L51.5447 38.8991Z" fill="#F4B301"/>
<path d="M20.818 46.556C20.778 46.5764 17.0337 45.977 17.0337 45.977C16.6235 46.5117 15.9988 46.8389 15.3258 46.8711C13.7087 46.9487 12.1268 47.0199 10.7576 47.0811C9.48011 47.1383 8.49035 48.2186 8.54434 49.4962V49.4982C8.59534 50.7058 9.5647 51.6723 10.7725 51.7198L18.7356 52.0334C20.0449 52.0849 21.7856 51.289 22.6031 50.2649L20.818 46.556Z" fill="#455A64"/>
<path d="M18.7018 52.109C18.6803 52.091 19.0804 51.8365 19.4216 51.1948C19.5917 50.8781 19.7318 50.4646 19.7742 49.991C19.8178 49.5194 19.7492 48.9855 19.5181 48.4895C19.2781 47.9975 18.9061 47.6083 18.512 47.3454C18.1172 47.0802 17.7076 46.9291 17.3545 46.8621C16.641 46.7235 16.1917 46.8741 16.1912 46.8461C16.1905 46.8429 16.2176 46.835 16.2698 46.8225C16.3224 46.8125 16.3989 46.787 16.5009 46.7777C16.7031 46.7462 17.0038 46.7367 17.3665 46.7984C17.7287 46.8588 18.1508 47.0068 18.559 47.2752C18.9663 47.5413 19.3523 47.9407 19.6008 48.4501C19.8403 48.9637 19.9077 49.515 19.8583 49.9988C19.8101 50.4849 19.6595 50.9061 19.4786 51.2256C19.2983 51.5464 19.1015 51.7741 18.9499 51.9115C18.8785 51.9848 18.8105 52.0282 18.7697 52.0629C18.7269 52.0956 18.7037 52.1114 18.7018 52.109Z" fill="#263238"/>
<path d="M1.255 43.3739C1.255 43.3739 0.912415 36.3663 7.49829 34.9061V34.0076H30.5695V36.15C30.5695 36.15 27.1833 40.2275 28.2889 43.6137C29.3947 47.0002 29.7401 47.3455 29.7401 47.3455H42.8707C42.8707 47.3455 44.4603 45.3416 44.5295 42.3699C44.5986 39.3981 43.3637 34.3166 42.442 31.0684C41.604 28.115 41.0739 25.6455 41.0739 25.6455L45.0131 24.3324C45.0131 24.3324 52.302 33.8629 52.5998 34.3987C52.8975 34.9346 53.9098 36.1851 53.6717 38.9244C53.4335 41.6636 46.8832 50.1191 45.1564 51.0717C43.4296 52.0245 41.8815 52.0842 40.3332 52.3223C38.9893 52.5291 29.0488 52.3923 26.4487 52.3525C25.5456 52.3388 24.6537 52.1081 23.8815 51.6398C23.104 51.1683 22.519 50.3881 21.8738 49.1068L20.5042 46.4272L1.255 43.3739Z" fill="#F4B301"/>
<path d="M3.02059 42.8861L0.114286 47.4378C-0.257839 48.0204 0.344314 48.7538 0.97865 48.4789C1.28623 48.3456 1.61738 48.1372 1.95328 47.8177C3.28245 46.5532 5.65131 43.2226 5.65131 43.2226L3.02059 42.8861Z" fill="#455A64"/>
<path d="M23.8585 43.7059C23.8571 43.7054 23.8627 43.6829 23.8754 43.6396C23.8898 43.5923 23.9093 43.529 23.934 43.4484C23.9836 43.2801 24.043 43.0276 24.0861 42.6975C24.1601 42.0424 24.1264 41.0416 23.6364 39.9507C23.3976 39.4068 23.0439 38.8509 22.5659 38.3409C22.0857 37.8346 21.4923 37.3664 20.7999 36.9936C20.1098 36.6181 19.3306 36.3234 18.4954 36.1359C17.6601 35.9484 16.772 35.8638 15.8635 35.8638C14.9539 35.8637 14.067 35.9446 13.2164 36.058C12.3654 36.1727 11.5485 36.3137 10.7796 36.4892C9.24084 36.8351 7.90182 37.3471 6.86617 37.9373C5.82682 38.5236 5.09014 39.1632 4.6299 39.6437C4.39776 39.8832 4.23157 40.0823 4.12025 40.2182C4.06767 40.284 4.02634 40.3357 3.99539 40.3744C3.96673 40.4094 3.95143 40.4266 3.9502 40.4257C3.9502 40.4257 4.14646 40.1092 4.60405 39.619C5.05813 39.1289 5.79288 38.478 6.83416 37.881C7.87175 37.2801 9.21657 36.7586 10.7606 36.4069C11.5322 36.2286 12.3513 36.0853 13.2044 35.969C14.0577 35.854 14.9485 35.7722 15.8635 35.7724C16.7776 35.7724 17.6724 35.8582 18.5153 36.0485C19.3579 36.2388 20.1441 36.5381 20.8405 36.9195C21.5391 37.2984 22.1377 37.7742 22.6213 38.289C23.1028 38.8076 23.4581 39.3728 23.6957 39.9245C24.1835 41.031 24.2071 42.0431 24.1214 42.7019C24.0725 43.0339 24.007 43.2866 23.9516 43.4539C23.9232 43.5336 23.9009 43.596 23.8842 43.6428C23.8685 43.6851 23.8599 43.7064 23.8585 43.7059Z" fill="#263238"/>
<path d="M22.5293 42.1326C22.5194 42.1287 22.5678 42.022 22.6163 41.8206C22.6705 41.6205 22.6935 41.3157 22.6425 40.9494C22.5922 40.5826 22.451 40.1573 22.214 39.7279C22.0977 39.5121 21.9547 39.2966 21.7887 39.0881C21.6252 38.8776 21.4326 38.6773 21.217 38.4959C20.7833 38.1319 20.3002 37.8755 19.8449 37.6933C19.3863 37.516 18.9535 37.41 18.5859 37.3495C18.2182 37.2881 17.9166 37.2623 17.708 37.2496C17.4994 37.2368 17.3835 37.2318 17.3835 37.2246C17.3835 37.2215 17.4126 37.2188 17.4678 37.2167C17.523 37.2155 17.6046 37.2109 17.7094 37.2139C17.9192 37.2157 18.2235 37.2318 18.5959 37.2855C18.9682 37.3384 19.4081 37.4392 19.8755 37.6147C20.3396 37.7955 20.8324 38.0537 21.2759 38.4258C21.4971 38.6118 21.6931 38.8169 21.8591 39.0325C22.0275 39.246 22.1718 39.4664 22.2882 39.6876C22.5258 40.1274 22.6635 40.5643 22.7067 40.9408C22.7507 41.3168 22.7166 41.6284 22.6508 41.8296C22.63 41.9335 22.5852 42.0053 22.5673 42.0573C22.5451 42.1082 22.5321 42.134 22.5293 42.1326Z" fill="#F5F5F5"/>
<path d="M18.011 35.9931C19.3004 36.2391 20.4275 36.7015 21.4851 37.4074C22.5428 38.1133 23.3519 39.1127 23.8123 40.2981C24.2727 41.4834 24.2038 43.0533 23.7193 44.0351L25.3494 44.17C25.8984 42.34 25.3007 40.0937 23.9819 38.6608C22.4346 36.9797 20.3063 35.9931 18.011 35.9931Z" fill="#D89E00"/>
<path d="M30.5694 34.0076C30.5694 34.0076 30.95 33.5536 30.9864 32.9741C31.0228 32.3946 30.7584 31.6701 30.135 31.6701H22.1684C20.8776 31.6701 19.8311 32.7168 19.8311 34.0076H30.5694Z" fill="#455A64"/>
<path d="M41.074 25.6455L39.6887 22.7561C39.3099 21.9346 39.6119 20.9596 40.3888 20.4962L44.5316 18.025C44.7483 17.8957 44.9959 17.8277 45.2481 17.8277H46.1434L46.502 23.6677L45.1207 24.196L45.9948 25.6177L41.074 25.6455Z" fill="#F4B301"/>
<path d="M46.1562 18.0395C46.1562 18.0395 47.5737 18.3643 47.752 20.5496C47.9303 22.7349 46.5018 23.4149 46.5018 23.4149L46.1562 18.0395Z" fill="#EBEBEB"/>
<path d="M41.5567 21.624C41.5567 21.624 38.6912 22.982 38.3416 23.2049C38.0991 23.3594 37.8907 23.6303 38.081 24.1063C38.4054 24.9181 39.7453 24.1545 39.7453 24.1545L42.4121 22.8211C42.4121 22.8211 43.4375 22.3372 43.0591 21.7317C42.6353 21.0537 41.5567 21.624 41.5567 21.624Z" fill="#263238"/>
<path d="M41.6937 17.3802C41.6937 18.4696 41.1929 19.353 40.5749 19.353C39.9569 19.353 39.4561 18.4696 39.4561 17.3802C39.4561 16.2907 39.9569 15.4073 40.5749 15.4073C41.1929 15.4073 41.6937 16.2907 41.6937 17.3802Z" fill="#263238"/>
<path d="M40.7588 18.7366L41.3734 20.8667C41.6479 20.7274 41.7051 20.4537 41.6594 20.2378C41.5051 19.5081 41.4183 18.9885 41.2487 18.3497C41.2282 18.285 40.7588 18.7366 40.7588 18.7366Z" fill="#263238"/>
<path d="M28.5924 44.5238C28.5315 44.3483 28.4696 44.1686 28.4109 43.9843C28.3562 43.8124 28.2916 43.6341 28.2447 43.4632C28.1604 43.1575 28.1117 42.8426 28.091 42.6605C27.0537 46.8844 28.6374 49.8586 31.3573 50.0677C35.3307 50.3732 40.1752 50.5955 42.135 50.0811C45.7068 49.1435 47.0175 46.1657 47.33 45.6745C47.6425 45.1833 50.4841 39.9908 48.7428 34.9903C47.0016 29.9898 43.967 24.6813 43.967 24.6811L41.074 25.6453C41.074 25.6453 41.6041 28.115 42.4421 31.0684C43.3637 34.3166 44.5985 39.3979 44.5294 42.3697C44.4602 45.3414 42.8708 47.3455 42.8708 47.3455H29.7402C29.7402 47.3455 29.4588 47.0634 28.5924 44.5238Z" fill="#002314"/>
<path d="M0.729677 42.2746L0.82218 41.2727L24.7891 44.0339C26.1416 44.1925 27.0818 45.4568 26.8444 46.7977L26.7369 47.4053L1.93187 43.8009C1.18903 43.6929 0.660739 43.0221 0.729677 42.2746Z" fill="#D89E00"/>
<path d="M47.3298 48.9797C47.3298 48.9797 52.6059 43.1768 53.6936 38.6144C54.059 38.6107 54.9109 38.6476 55.3277 38.7354C55.3277 38.7354 52.2077 47.2163 47.3298 48.9797Z" fill="#D89E00"/>
<path d="M53.6169 36.5692C53.6201 36.5687 53.6298 36.6192 53.6456 36.7159C53.6593 36.8128 53.688 36.9549 53.7058 37.1403C53.7401 37.5105 53.7626 38.0542 53.6648 38.7155C53.5698 39.3762 53.3437 40.1472 52.9687 40.9454C52.602 41.7482 52.0975 42.5765 51.572 43.4425C50.5151 45.1811 49.3387 46.6031 48.4837 47.6185C48.0537 48.1255 47.6995 48.5304 47.4533 48.8086C47.3337 48.9422 47.2386 49.0484 47.1679 49.1274C47.1018 49.1995 47.0661 49.2364 47.0636 49.2343C47.0611 49.2322 47.0923 49.1914 47.1538 49.1153C47.2214 49.0335 47.3123 48.9236 47.4264 48.7854C47.6702 48.4931 48.0129 48.0821 48.4341 47.577C49.276 46.5517 50.4412 45.1264 51.4936 43.395C52.0192 42.5285 52.5241 41.7048 52.8922 40.9099C53.2687 40.1192 53.4986 39.3588 53.6008 38.7056C53.7058 38.0519 53.6934 37.5128 53.6702 37.1434C53.6579 36.9586 53.6351 36.816 53.6273 36.7186C53.6175 36.6213 53.6138 36.5698 53.6169 36.5692Z" fill="#263238"/>
<path d="M44.4968 48.9375C44.479 48.9556 44.1007 48.6137 43.6518 48.1742C43.2026 47.7346 42.853 47.3637 42.8708 47.3456C42.8884 47.3275 43.2666 47.6692 43.7158 48.1088C44.1648 48.5483 44.5146 48.9194 44.4968 48.9375Z" fill="#263238"/>
<path d="M28.8388 48.7586C28.817 48.7487 28.9619 48.3953 29.2259 48.0077C29.4886 47.6188 29.7635 47.3538 29.7806 47.3705C29.8004 47.3885 29.5599 47.6767 29.3017 48.059C29.0419 48.4401 28.8627 48.7704 28.8388 48.7586Z" fill="#263238"/>
<path d="M9.9499 50.2719C9.92457 50.2731 9.88624 49.8947 9.8639 49.4267C9.84157 48.9585 9.84403 48.5782 9.86935 48.5769C9.89468 48.5757 9.93302 48.9541 9.95535 49.4223C9.97769 49.8903 9.97522 50.2707 9.9499 50.2719Z" fill="#263238"/>
<path d="M10.5856 50.2732C10.5604 50.2764 10.4915 49.8988 10.4317 49.4299C10.3717 48.9609 10.3434 48.5782 10.3686 48.5751C10.3937 48.5719 10.4625 48.9493 10.5224 49.4183C10.5824 49.8872 10.6107 50.27 10.5856 50.2732Z" fill="#263238"/>
<path d="M20.4697 34.0077C20.4697 34.033 17.5556 34.0534 13.9619 34.0534C10.3669 34.0534 7.45337 34.033 7.45337 34.0077C7.45337 33.9823 10.3669 33.9619 13.9619 33.9619C17.5556 33.9619 20.4697 33.9823 20.4697 34.0077Z" fill="#263238"/>
<path d="M30.8576 41.2348L30.8074 41.3406L29.8395 43.379L28.4209 44.8734L31.5614 48.6853L34.0123 48.1648C34.0123 48.1648 33.7095 47.6137 32.4655 47.5604L31.8858 45.2237L33.506 42.4469" fill="#455A64"/>
<path d="M28.4209 44.8733L31.5614 48.6852L34.0122 48.1648L33.6579 47.855L31.6415 48.1688L28.7226 44.5554L28.4209 44.8733Z" fill="#E0E0E0"/>
<path d="M32.2205 46.4853C32.2077 46.5142 32.0495 46.4639 31.8611 46.5097C31.6714 46.5499 31.5504 46.6638 31.5263 46.6432C31.4993 46.6296 31.6061 46.4533 31.8365 46.4022C32.0663 46.3487 32.239 46.4614 32.2205 46.4853Z" fill="#263238"/>
<path d="M32.0568 45.9099C32.036 45.9325 31.896 45.811 31.6925 45.8145C31.4889 45.8159 31.3521 45.9407 31.3306 45.9186C31.32 45.9094 31.3394 45.8622 31.4002 45.81C31.4597 45.7583 31.5653 45.706 31.6912 45.7044C31.817 45.703 31.924 45.7527 31.9847 45.8032C32.0469 45.8539 32.0673 45.9005 32.0568 45.9099Z" fill="#263238"/>
<path d="M31.913 45.1568C31.889 45.176 31.7754 45.0523 31.592 45.0295C31.4088 45.0045 31.2673 45.095 31.2491 45.0703C31.24 45.0594 31.2637 45.0186 31.3262 44.9788C31.3874 44.9391 31.4908 44.9052 31.6063 44.9203C31.7217 44.9353 31.8129 44.9946 31.862 45.0486C31.9122 45.1032 31.9246 45.1486 31.913 45.1568Z" fill="#263238"/>
<path d="M32.4454 44.436C32.4185 44.4526 32.3199 44.3278 32.1467 44.2616C31.9756 44.1904 31.8182 44.2133 31.8099 44.1829C31.7955 44.1563 31.9767 44.074 32.1875 44.1593C32.3992 44.2423 32.474 44.4265 32.4454 44.436Z" fill="#263238"/>
<path d="M32.6579 43.8647C32.6471 43.8756 32.5454 43.7941 32.3895 43.6537C32.3008 43.5715 32.2113 43.4883 32.1196 43.4032C32.072 43.3532 32.0119 43.3139 31.9638 43.2294C31.9412 43.1864 31.9307 43.1321 31.9471 43.0774C31.9611 43.0201 32.023 42.9724 32.0785 42.9685C32.1887 42.9612 32.2601 43.0036 32.3326 43.0386C32.4036 43.0775 32.4652 43.1256 32.5177 43.1771C32.6224 43.2812 32.6863 43.3998 32.7214 43.5035C32.7915 43.7151 32.7469 43.8537 32.7372 43.8499C32.7173 43.8499 32.731 43.7159 32.6489 43.5315C32.6081 43.4406 32.5436 43.3386 32.4474 43.2503C32.3993 43.2067 32.344 43.1664 32.282 43.134C32.2216 43.1032 32.1447 43.0717 32.0934 43.0777C32.0689 43.0819 32.0586 43.0907 32.0517 43.1098C32.0452 43.13 32.0478 43.1572 32.06 43.1806C32.0844 43.23 32.1446 43.2808 32.191 43.3312C32.277 43.422 32.3611 43.5107 32.4444 43.5985C32.5864 43.753 32.6687 43.8539 32.6579 43.8647Z" fill="#263238"/>
<path d="M32.7611 43.9189C32.7494 43.9207 32.7312 43.7898 32.8326 43.6141C32.932 43.4474 33.1835 43.238 33.5312 43.3284C33.5577 43.3428 33.5829 43.3739 33.5879 43.4079C33.5939 43.4421 33.5847 43.4703 33.575 43.4919C33.5541 43.5361 33.526 43.5619 33.5034 43.5877C33.455 43.6397 33.4034 43.685 33.3512 43.7236C33.247 43.8011 33.1405 43.8517 33.0482 43.8822C32.862 43.9432 32.7393 43.9308 32.7391 43.9183C32.7369 43.9008 32.8534 43.8848 33.0197 43.8096C33.1024 43.7721 33.197 43.7185 33.2892 43.6433C33.3352 43.6058 33.3808 43.5631 33.4236 43.5151C33.4451 43.49 33.4671 43.4664 33.4752 43.4464C33.4826 43.4223 33.4808 43.429 33.4754 43.4235C33.4656 43.416 33.4306 43.413 33.3989 43.4123C33.3671 43.4114 33.3355 43.4132 33.3049 43.4176C33.2435 43.4258 33.1855 43.4435 33.1334 43.4672C33.0285 43.5141 32.9506 43.587 32.8974 43.6575C32.7914 43.8015 32.7789 43.9223 32.7611 43.9189Z" fill="#263238"/>
<path d="M39.4114 42.8255L40.2045 47.9754L46.6168 47.0216C46.4881 46.4147 42.9879 45.6782 42.9879 45.6782L42.6151 42.3577L39.4114 42.8255Z" fill="#455A64"/>
<path d="M40.2044 47.9754L40.1448 47.4532L46.3153 46.7338C46.3153 46.7338 46.6192 46.8154 46.6169 47.0213L40.2044 47.9754Z" fill="#E0E0E0"/>
<path d="M43.0869 45.6299C43.0906 45.6613 42.9362 45.6988 42.7971 45.8224C42.6548 45.9424 42.5954 46.0897 42.5648 46.0816C42.5351 46.0799 42.5539 45.8857 42.725 45.7391C42.8947 45.591 43.0894 45.6001 43.0869 45.6299Z" fill="#263238"/>
<path d="M43.801 45.8083C43.8127 45.8376 43.6848 45.911 43.5983 46.0592C43.5072 46.2048 43.5017 46.352 43.4704 46.3554C43.4418 46.3647 43.3927 46.1844 43.504 46.0022C43.6136 45.819 43.7959 45.7785 43.801 45.8083Z" fill="#263238"/>
<path d="M44.3027 46.5562C44.2753 46.5671 44.2083 46.4171 44.2632 46.2337C44.3168 46.0497 44.4545 45.9604 44.4716 45.9845C44.493 46.0075 44.4116 46.1137 44.3689 46.265C44.3226 46.4152 44.3333 46.5485 44.3027 46.5562Z" fill="#263238"/>
<path d="M42.9179 44.8827C42.909 44.9131 42.7589 44.8913 42.5838 44.9296C42.4077 44.9644 42.2788 45.0445 42.2586 45.02C42.2372 45.0001 42.3543 44.864 42.5613 44.8218C42.7679 44.778 42.9297 44.8558 42.9179 44.8827Z" fill="#263238"/>
<path d="M42.652 44.1447C42.6543 44.1575 42.5335 44.1953 42.3307 44.1907C42.2297 44.1883 42.1089 44.1733 41.9793 44.1375C41.9146 44.1195 41.8476 44.0963 41.7802 44.0671C41.7479 44.0525 41.7101 44.0385 41.6721 44.0059C41.6325 43.9785 41.6005 43.8985 41.633 43.8417C41.6585 43.7875 41.7134 43.7574 41.7595 43.7495C41.8064 43.7409 41.8462 43.7448 41.8824 43.7483C41.9565 43.755 42.0268 43.7687 42.0922 43.7871C42.2231 43.8246 42.3331 43.8802 42.4174 43.9373C42.5867 44.053 42.6548 44.1624 42.645 44.1702C42.6323 44.1827 42.5454 44.0954 42.3771 44.0042C42.2932 43.9588 42.1879 43.9145 42.0665 43.8853C42.0059 43.871 41.9412 43.8607 41.8738 43.8559C41.8033 43.8482 41.7452 43.8563 41.7324 43.8891C41.7278 43.9016 41.7277 43.9062 41.7449 43.924C41.7623 43.9401 41.7925 43.9539 41.8244 43.9685C41.8866 43.9969 41.9484 44.0207 42.0083 44.0402C42.1284 44.0791 42.241 44.1011 42.3365 44.113C42.5278 44.1369 42.6501 44.1276 42.652 44.1447Z" fill="#263238"/>
<path d="M42.6182 44.1955C42.6078 44.202 42.5291 44.099 42.4874 43.898C42.4671 43.7982 42.4592 43.6746 42.4788 43.5397C42.489 43.4724 42.506 43.4025 42.5317 43.3326C42.5598 43.2636 42.5929 43.172 42.7123 43.14C42.7754 43.1282 42.8356 43.1699 42.8598 43.2096C42.8875 43.2499 42.8973 43.2865 42.9103 43.3225C42.9334 43.3957 42.9427 43.4692 42.9427 43.5387C42.9429 43.6781 42.9038 43.8002 42.8549 43.8909C42.7543 44.0757 42.6293 44.1326 42.6251 44.1224C42.6122 44.1081 42.7123 44.0314 42.7844 43.8575C42.8199 43.7717 42.8467 43.6616 42.8412 43.5406C42.8387 43.4803 42.8282 43.4175 42.8076 43.3559C42.7874 43.2893 42.7538 43.2381 42.7294 43.2488C42.6974 43.2531 42.6507 43.3125 42.6326 43.3707C42.6084 43.4331 42.591 43.4958 42.579 43.5566C42.5561 43.6785 42.5549 43.7921 42.5644 43.8863C42.5836 44.0759 42.6346 44.1881 42.6182 44.1955Z" fill="#263238"/>
<path d="M34.9446 31.0282L29.4448 43.0113L33.0767 45.1917L40.681 30.7731" fill="#263238"/>
<path d="M33.6451 18.9998C33.33 18.0719 32.3224 17.5749 31.3944 17.8901C30.4665 18.2052 29.9695 19.2128 30.2847 20.1407C30.5998 21.0687 31.6074 21.5656 32.5353 21.2505C33.4633 20.9353 33.9602 19.9278 33.6451 18.9998Z" fill="#D89E00"/>
<path d="M31.5016 21.2939L39.2753 22.0047L39.41 19.4198L33.0236 18.1466L31.5016 21.2939Z" fill="#D89E00"/>
<path d="M33.2891 18.3893C33.2891 18.3893 30.0473 12.7963 30.0421 12.739L28.0611 16.8486L30.5966 20.7L33.2891 18.3893Z" fill="#D89E00"/>
<path d="M26.5919 22.2635C29.1161 22.3986 31.0559 24.5576 30.9209 27.0818C30.7859 29.606 28.6268 31.5458 26.1027 31.4108C23.5785 31.2758 21.6387 29.1167 21.7737 26.5925C21.9087 24.0683 24.0678 22.1285 26.5919 22.2635Z" fill="#09B750"/>
<path d="M21.8603 27.0645L22.2368 21.1173C22.2368 21.1173 21.9847 16.2921 21.9778 14.7525C21.9728 13.654 24.1223 10.0344 24.9467 9.86615C25.7711 9.69785 27.5562 10.6989 27.5562 10.6989C28.8595 11.6753 30.0681 12.3625 30.2519 13.637L30.9062 26.607L21.8603 27.0645Z" fill="#F4B301"/>
<path d="M29.7633 24.3837C29.7676 24.3859 29.7344 24.4628 29.656 24.5925C29.5784 24.7225 29.4469 24.9002 29.255 25.0927C28.8757 25.4809 28.2151 25.8884 27.4097 26.0903C26.6043 26.2914 25.8499 26.2965 25.3134 26.2907C25.044 26.2864 24.8267 26.2769 24.6764 26.2681C24.5261 26.2594 24.4432 26.2514 24.4434 26.2451C24.4436 26.2387 24.5267 26.2346 24.6771 26.2324C24.8455 26.2307 25.0589 26.2285 25.3135 26.2259C25.8486 26.2153 26.5957 26.1994 27.3871 26.0015C28.1776 25.8031 28.8271 25.4144 29.2101 25.046C29.5997 24.6798 29.7462 24.3718 29.7633 24.3837Z" fill="#263238"/>
<path d="M30.4624 18.8523C30.4561 18.8527 30.4465 18.7868 30.4346 18.6673C30.4225 18.5275 30.4078 18.3586 30.3906 18.1609C30.3564 17.7104 30.3123 17.1307 30.2637 16.4895C30.2189 15.836 30.188 15.2437 30.1724 14.8147C30.1645 14.6003 30.1601 14.4266 30.1594 14.3065C30.1586 14.1863 30.1611 14.1199 30.1675 14.1195C30.1739 14.1191 30.1834 14.1852 30.1951 14.3047C30.2066 14.4444 30.2207 14.6134 30.2371 14.8111C30.269 15.2618 30.3098 15.8418 30.3551 16.4833C30.3999 17.1363 30.4373 17.7281 30.4552 18.157C30.4644 18.3715 30.4693 18.5452 30.4703 18.6654C30.4713 18.7855 30.4688 18.852 30.4624 18.8523Z" fill="#263238"/>
<path d="M37.1115 31.6887L25.4377 32.4468C25.1284 32.4635 24.8166 32.4351 24.5184 32.3511C21.2479 31.4285 21.723 27.2538 22.0439 26.5863L38.1932 26.2441C38.9596 26.2279 39.5059 26.3676 40.0905 26.785L37.1115 31.6887Z" fill="#263238"/>
<path d="M37.0722 31.7392C37.0715 31.7392 33.3073 31.9861 32.0605 32.0678C31.4444 32.1051 30.9535 32.1346 30.61 32.1554C30.4459 32.1638 30.3174 32.1704 30.2238 32.1752C30.1836 32.1765 30.1508 32.1776 30.1243 32.1785C30.1019 32.1788 30.0905 32.1784 30.0903 32.1772C30.0902 32.1759 30.1015 32.1737 30.1236 32.1711C30.15 32.1683 30.1828 32.165 30.2229 32.1608C30.3162 32.1527 30.4445 32.1417 30.6081 32.1274C30.9511 32.1008 31.4417 32.063 32.0571 32.0154C33.3036 31.9254 37.1445 31.6483 37.1445 31.6483L37.0722 31.7392Z" fill="#455A64"/>
<path d="M35.6731 29.2049C35.6731 30.7878 36.9564 32.0711 38.5393 32.0711C40.1222 32.0711 41.4055 30.7878 41.4055 29.2049C41.4055 27.6219 40.1222 26.3387 38.5393 26.3387C36.9564 26.3387 35.6731 27.6219 35.6731 29.2049Z" fill="#263238"/>
<path d="M40.2357 26.8937C40.9914 27.4245 41.5385 28.2398 41.6752 29.2158L43.4389 45.169L39.4925 45.8018L37.1296 31.7009L40.2357 26.8937Z" fill="#263238"/>
<path d="M37.1622 31.6605C37.1622 31.6605 37.5812 34.1488 37.8065 35.4873C38.2972 38.4471 38.7414 41.1267 39.0641 43.0735C39.2199 44.0405 39.3464 44.8251 39.435 45.3746C39.4761 45.6419 39.5085 45.8517 39.5314 46.001C39.5409 46.0688 39.5483 46.1226 39.5541 46.1642C39.5586 46.2012 39.5602 46.2203 39.5586 46.2205C39.557 46.2207 39.5525 46.2022 39.5447 46.1658C39.5366 46.1245 39.5263 46.0712 39.5131 46.004C39.4862 45.8554 39.4482 45.6465 39.3998 45.3804C39.3043 44.8321 39.1682 44.0491 39.0003 43.0842C38.6707 41.1386 38.2172 38.4604 37.7161 35.5024C37.4928 34.1636 37.0906 31.752 37.0906 31.752L37.1622 31.6605Z" fill="#455A64"/>
<path d="M38.3613 30.45C38.3778 30.4709 38.0704 30.7349 37.7218 31.0903C37.3719 31.4447 37.1128 31.7561 37.0917 31.7399C37.0724 31.7259 37.3019 31.3854 37.6566 31.0261C38.0101 30.6658 38.347 30.4308 38.3613 30.45Z" fill="#455A64"/>
<path d="M36.7637 22.0606C36.7254 21.6514 37.026 21.2888 37.4352 21.2505C37.8444 21.2122 38.207 21.5128 38.2453 21.922C38.2836 22.3312 37.983 22.6938 37.5738 22.7321C37.1646 22.7704 36.802 22.4698 36.7637 22.0606Z" fill="#FFBE9D"/>
<path d="M37.5425 21.2482C37.5425 21.2482 40.2338 21.4497 40.4669 21.489C40.7001 21.5283 41.6344 21.8692 41.7054 22.1379C41.7765 22.4067 41.8062 23.2146 41.8062 23.2146C41.8062 23.2146 41.6569 23.3614 41.5311 23.1079C41.4053 22.8544 41.3718 22.3329 41.3718 22.3329L40.8534 22.1871L41.1718 22.6468L41.3237 23.7798C41.3237 23.7798 40.9711 23.7806 40.8778 23.5149C40.7846 23.2491 40.7573 22.9456 40.7573 22.9456L40.3633 22.6707L40.6708 23.0149L40.8396 23.8251C40.8396 23.8251 40.5811 23.9362 40.4804 23.7622C40.3797 23.5883 40.322 23.0476 40.322 23.0476L39.2592 22.7842L38.6127 23.2277L37.402 22.7286L37.5425 21.2482Z" fill="#FFBE9D"/>
<path d="M26.0321 22.1368C25.6343 21.1327 26.1257 19.9962 27.1299 19.5984C28.1341 19.2006 29.2705 19.692 29.6684 20.6961C30.0662 21.7003 29.5747 22.8368 28.5706 23.2346C27.5664 23.6324 26.4299 23.141 26.0321 22.1368Z" fill="#F4B301"/>
<path d="M26.0321 22.1368C25.6343 21.1327 26.1257 19.9962 27.1299 19.5984C28.1341 19.2006 29.2705 19.692 29.6684 20.6961C30.0662 21.7003 29.5747 22.8368 28.5706 23.2346C27.5664 23.6324 26.4299 23.141 26.0321 22.1368Z" stroke="black" stroke-width="0.2" stroke-miterlimit="10"/>
<path d="M27.2636 23.2877C27.9283 23.5034 28.7616 23.4696 29.5983 23.5135C29.5983 23.5135 37.6867 23.4545 37.9107 23.244C38.068 23.0962 37.8013 21.0284 37.8013 21.0284L28.4492 19.5844" fill="#F4B301"/>
<path d="M28.4033 19.5496L37.801 21.0286C37.801 21.0286 38.031 23.2313 37.9106 23.2441C37.16 23.3243 28.5639 23.7724 27.2588 23.2757" stroke="#002314" stroke-width="0.1" stroke-miterlimit="10"/>
<path d="M26.5429 14.9559C26.5429 14.9559 24.777 15.2721 23.6324 17.1512L25.2132 21.0012C25.5308 21.5021 25.7882 22.0894 26.1344 22.434L29.3845 20.1338C29.2831 19.9629 26.5429 14.9559 26.5429 14.9559Z" fill="#F4B301"/>
<path d="M26.6311 14.9791C26.879 15.3809 29.3507 20.162 29.3507 20.162" stroke="#002314" stroke-width="0.1" stroke-miterlimit="10"/>
<path d="M26.2085 22.4642C26.2085 22.4642 25.8502 21.8278 25.3608 21.0331C24.2468 19.2235 24.0806 18.4603 24.0596 18.3754" stroke="#002314" stroke-width="0.1" stroke-miterlimit="10"/>
<path d="M29.4817 9.12818L28.5204 12.2017L25.3697 9.99279L26.2311 7.56202L29.4817 9.12818Z" fill="#FFBE9D"/>
<path d="M29.7882 7.95339L28.9082 10.7834L25.6383 9.04127L26.5376 6.38723L29.7882 7.95339Z" fill="#AB7E67"/>
<path d="M30.3454 13.1492L28.7712 11.396L26.9104 10.3052L25.1276 9.50818L24.3318 10.114L24.2465 10.4986L24.4494 10.8973L25.6158 10.6648L26.6509 11.0815L28.1506 12.1149L29.2139 12.68L30.3454 13.1492Z" fill="#F4B301"/>
<path d="M31.0228 4.91744L31.6958 6.47247C31.8117 6.74044 31.7019 7.0524 31.4436 7.18848L30.7996 7.52798L31.0228 4.91744Z" fill="#FFBE9D"/>
<path d="M28.4975 10.0337C30.0697 9.94848 31.2751 8.60494 31.1901 7.03283L31.0425 4.30914C30.9573 2.73693 29.6139 1.53151 28.0416 1.61668C26.4694 1.70175 25.2639 3.04519 25.3491 4.6174L25.4967 7.34131C25.5818 8.91342 26.9253 10.1188 28.4975 10.0337Z" fill="#FFBE9D"/>
<path d="M27.8177 5.4015L27.826 8.11137C27.0776 8.11372 26.4691 7.50905 26.4668 6.76077C26.4645 6.01239 27.0694 5.40376 27.8177 5.4015Z" fill="#F3AF8D"/>
<path d="M27.5695 5.91229L27.562 7.54651C27.1107 7.54443 26.7467 7.17697 26.7487 6.72572C26.7507 6.27448 27.1182 5.91032 27.5695 5.91229Z" fill="#D88E69"/>
<path d="M27.2917 1.762C26.4476 2.05574 25.6924 2.73725 25.3927 3.57919C25.184 4.16557 25.3571 6.26983 25.4422 6.52593C25.5817 6.94529 26.034 6.40884 26.1169 6.55499C26.1998 6.70114 26.2304 6.87242 26.3131 7.01878C26.3958 7.16515 26.5647 7.2891 26.7241 7.23615C26.8342 7.19959 26.2053 5.7511 27.6269 5.43219C28.1416 5.31682 27.7827 6.49621 28.1888 6.75677C28.4821 6.94495 28.7702 7.0071 28.7058 6.507C28.6413 6.0069 28.4564 5.13443 28.6941 4.16302C28.8076 3.69877 29.0552 3.22599 29.3446 2.9497C29.5377 2.76529 29.6022 3.06637 29.9769 2.93858C30.3364 2.81587 30.1771 2.39906 30.1771 2.39906C30.1748 2.37325 30.1306 2.15254 30.0357 2.07918C29.3285 1.5326 28.1358 1.46827 27.2917 1.762Z" fill="#263238"/>
<path d="M28.0668 2.54898C27.7149 2.99314 28.8118 3.48234 28.8118 3.48234C28.9053 3.60391 29.6724 3.52914 29.8257 3.52746C29.979 3.52577 30.1502 3.18197 30.241 3.05842C30.2973 3.1658 30.7341 3.22525 30.8538 3.20671C30.9736 3.18817 31.1617 3.06338 31.0857 2.8369C30.9998 2.58063 30.2564 2.16089 29.8134 2.1275C29.046 2.06958 28.4202 2.1029 28.0668 2.54898Z" fill="#263238"/>
<path d="M27.4987 3.23439C27.4125 4.28694 27.994 5.4524 28.9906 5.86821C29.1733 5.94456 29.2687 5.65311 29.0876 5.57757C28.217 5.2143 27.7302 4.15944 27.8046 3.25075C27.8208 3.05364 27.5148 3.03789 27.4987 3.23439Z" fill="#018349"/>
<path d="M29.091 6.71603L29.0007 8.40522C29.0007 8.40522 29.0477 8.99706 28.5733 9.04531C28.099 9.09357 24.2292 8.36864 23.8565 4.6191C23.5497 1.53359 26.7096 0.278544 27.7354 0.210702C28.9877 0.127774 32.1298 1.35422 32.2197 4.08434C31.6186 4.05219 30.4608 4.13751 29.5265 4.45588C28.954 4.86722 29.091 6.71603 29.091 6.71603Z" fill="#F4B301"/>
<g opacity="0.48">
<path d="M32.2195 4.08438C32.2195 4.08438 32.4765 7.11804 32.2034 7.32442C31.9302 7.53079 28.973 7.44634 28.973 7.44634C28.973 7.44634 28.9824 5.17833 29.1733 4.68256C29.3864 4.12928 31.8915 3.84586 32.2195 4.08438Z" fill="#A2FFFF"/>
<path d="M32.2194 4.08437C32.2194 4.08437 32.4765 7.11804 32.2034 7.32441C31.9302 7.53078 28.973 7.44634 28.973 7.44634C28.973 7.44634 28.9824 5.17832 29.1733 4.68255C29.3864 4.12927 31.8914 3.84584 32.2194 4.08437Z" stroke="white" stroke-width="0.580642" stroke-miterlimit="10"/>
</g>
<path d="M21.0883 32.6609C21.0883 33.4057 20.4789 34.015 19.7341 34.015H4.16151C3.41674 34.015 2.80737 33.4057 2.80737 32.6609V16.4112C2.80737 15.6664 3.41674 15.0571 4.16151 15.0571H19.7341C20.4789 15.0571 21.0883 15.6664 21.0883 16.4112V32.6609Z" fill="#F4B301"/>
<path d="M11.7449 21.5581C9.21844 21.5581 7.17017 23.6038 7.17017 26.1271C7.17017 28.6505 9.21844 30.6961 11.7449 30.6961C14.2711 30.6961 16.3193 28.6505 16.3193 26.1271C16.3193 23.6038 14.2711 21.5581 11.7449 21.5581ZM14.128 24.6411C13.8918 25.0952 13.4489 25.5552 12.9737 25.3976L12.1745 26.8177L13.6144 28.5828C13.7208 28.7241 13.6482 28.957 13.4516 29.1051L13.3984 29.1453C13.2018 29.2935 12.958 29.2993 12.8517 29.1581L11.7491 27.5733L10.8338 29.199C10.7413 29.3495 10.4981 29.367 10.2883 29.2381L10.2316 29.203C10.022 29.0742 9.92733 28.8495 10.0198 28.6989L11.2507 26.8571L10.368 25.5884C9.88237 25.835 9.4374 25.6553 9.05838 25.1523C8.67367 24.642 8.72309 23.7327 9.10307 23.4462C9.49049 23.1542 10.3678 23.3568 10.7563 23.8722C11.1394 24.3804 11.1771 24.818 10.8569 25.2026L11.6812 26.2129L12.4364 25.0833C12.0551 24.7438 12.228 24.154 12.489 23.7487C12.5064 23.7217 12.5244 23.6949 12.5438 23.6676C12.8158 23.2823 13.0248 23.0555 13.239 22.9705L12.6722 24.0624C12.6506 24.0974 12.6766 24.1522 12.73 24.1851C12.7838 24.218 12.8444 24.2164 12.8658 24.1815L13.7195 22.9933C13.7383 23.0011 13.7568 23.0099 13.7762 23.0188L13.0986 24.3246C13.0771 24.3594 13.1032 24.4142 13.1566 24.4473C13.2102 24.4801 13.2708 24.4783 13.2922 24.4434L14.1508 23.2497C14.1671 23.2627 14.1835 23.2762 14.1984 23.2894L13.525 24.5868C13.5038 24.6216 13.5295 24.6764 13.5831 24.7093C13.6367 24.7422 13.6974 24.7406 13.7188 24.7058L14.4305 23.7147C14.4476 23.9433 14.3417 24.2302 14.128 24.6411Z" fill="#D89E00"/>
<path d="M21.0883 20.2028H2.80737V18.4424H21.0883V20.2028Z" fill="#3D2D2C"/>
</svg>
