<svg width="97" height="60" viewBox="0 0 97 60" fill="none" xmlns="http://www.w3.org/2000/svg">
<path d="M96.1501 53.5H0.850098V60H96.1501V53.5Z" fill="#C9C9C9"/>
<path d="M85.4501 1.09998H58.8501V53.5H85.4501V1.09998Z" fill="#C9C9C9"/>
<path d="M79.9501 9.80005H64.8501V29.2001H79.8501V9.80005H79.9501Z" fill="white"/>
<path d="M79.9501 28.4H64.8501V30.7H79.9501V28.4Z" fill="#F4B301"/>
<path d="M79.1501 10.9H65.6501V28.4H79.1501V10.9Z" fill="#455A64"/>
<path d="M79.9501 28.4H64.8501V29H79.9501V28.4Z" fill="#D89E00"/>
<path d="M75.25 28.4H69.65L69.25 23.5H75.65L75.25 28.4Z" fill="#F4B301"/>
<path d="M70.7501 16C70.7501 16 70.4501 14.6 71.9501 14.4C73.4501 14.2 73.6501 14.5 73.9501 15.9L70.7501 16Z" fill="#F4B301"/>
<path d="M73.8501 23.6C73.8501 24.9 74.4501 26 75.2501 26C76.0501 26 76.7501 25.9 76.7501 24.6C76.7501 23.3 76.2501 21.3 75.2501 21.3C74.4501 21.2 73.8501 22.3 73.8501 23.6Z" fill="#F4B301"/>
<path d="M75.4501 26.7C76.2501 26.7 76.8501 26 76.8501 25.1C76.8501 24.2 76.2501 23.5 75.4501 23.5C74.6501 23.5 74.0501 24.2 74.0501 25.1C73.9501 26 74.6501 26.7 75.4501 26.7Z" fill="#F4B301"/>
<path d="M76.4501 24.3C76.2501 24.2 75.8501 24.1 75.6501 24.3L75.55 24.2C75.85 23.9 76.45 24.2 76.55 24.2L76.4501 24.3Z" fill="#242426"/>
<path d="M70.9501 23.6C70.9501 24.9 70.3501 26 69.5501 26C68.7501 26 68.1501 25.8 68.1501 24.5C68.1501 23.2 68.5501 21.3 69.5501 21.3C70.3501 21.2 70.9501 22.3 70.9501 23.6Z" fill="#F4B301"/>
<path d="M69.4501 26.7C70.2501 26.7 70.8501 26 70.8501 25.1C70.8501 24.2 70.2501 23.5 69.4501 23.5C68.6501 23.5 68.0501 24.2 68.0501 25.1C67.9501 26 68.6501 26.7 69.4501 26.7Z" fill="#F4B301"/>
<path d="M68.4501 24.3L68.3501 24.2C68.3501 24.2 69.0501 23.9 69.3501 24.2L69.2501 24.3C69.0501 24.1 68.5501 24.2 68.4501 24.3Z" fill="#242426"/>
<path d="M71.1501 20.3C71.1501 20.3 72.2501 19.9 73.6501 20.3L73.0501 21.2L71.6501 21.3L71.1501 20.3Z" fill="#D89E00"/>
<path d="M75.25 25.1C75.55 23.2 75.45 21.2 75.45 21.2C74.05 20.8 73.15 20.7 73.15 20.7C72.45 21.1 71.75 20.7 71.75 20.7C70.65 20.9 69.25 21.2999 69.25 21.2999C69.25 22.2999 69.35 23.6999 69.55 24.9C69.55 24.9 71.55 27.3 75.25 25.1Z" fill="#F4B301"/>
<path d="M71.8501 19.1L71.6501 20.9C71.6501 20.9 72.3501 21.7 73.2501 21L73.0501 19L71.8501 19.1Z" fill="#F7BCB2"/>
<path d="M70.75 16.9C70.75 16.9 70.85 18.1 70.95 18.3C71.05 18.6 71.35 19.6 71.95 19.7C72.55 19.9 73.65 19.9 73.95 18.1C74.15 16.9 74.05 16.7 73.95 16.3C73.85 15.9 73.55 15.4 73.25 15.2C72.45 14.9 70.85 14.7 70.75 16.9Z" fill="#F7BCB2"/>
<path d="M70.9502 16C70.9502 16 71.7502 16.4 71.9502 16.3C72.1502 16.1 71.9502 16 71.9502 16C71.9502 16 72.6502 16.5 73.2502 16.3C73.7502 16.1 73.0502 15.8 73.0502 15.8C73.0502 15.8 73.7502 16.3 73.8502 16C73.9502 15.8 72.8502 15.4 72.8502 15.4L70.9502 15.7V16V16Z" fill="#AB7546"/>
<path d="M73.8501 17.5001C73.8501 17.5001 73.9501 16.7001 74.3501 17.0001C74.7501 17.2001 74.4501 18.4001 73.8501 18.2001V17.5001Z" fill="#F7BCB2"/>
<path d="M70.85 17.2C70.85 17.2 70.65 16.6 70.45 16.8C70.25 17 70.25 18 70.95 18.1L70.85 17.2Z" fill="#F7BCB2"/>
<path d="M71.7501 17.4C71.7501 17.5 71.7501 17.6 71.6501 17.6C71.5501 17.6 71.55 17.5 71.55 17.5C71.55 17.4 71.5501 17.3 71.6501 17.3C71.6501 17.3 71.7501 17.3 71.7501 17.4Z" fill="#292929"/>
<path d="M73.2501 17.4C73.2501 17.5 73.1501 17.6 73.1501 17.6C73.0501 17.6 73.05 17.5 73.05 17.4C73.05 17.3 73.1501 17.2 73.1501 17.2C73.1501 17.3 73.2501 17.3 73.2501 17.4Z" fill="#292929"/>
<path d="M72.25 18.1C72.25 18.1 72.25 18.3 72.45 18.3C72.65 18.3 72.75 17.9 72.75 17.9L72.25 18.1Z" fill="#D89E00"/>
<path d="M72.25 18.2V18.1C72.45 18.1 72.45 18 72.55 17.9C72.55 17.8 72.55 17.7 72.55 17.7L72.65 17.6C72.65 17.6 72.75 17.7 72.65 17.9C72.55 18.1 72.45 18.1 72.25 18.2Z" fill="#242426"/>
<path d="M71.4501 17.1L71.3501 17C71.5501 16.7 71.8501 16.8 72.0501 16.9L71.9501 17C71.8501 17 71.6501 16.8 71.4501 17.1Z" fill="#242426"/>
<path d="M73.35 17.1C73.35 17.1 73.05 16.8 72.85 17L72.75 16.9C73.05 16.7 73.35 16.8 73.45 17L73.35 17.1Z" fill="#242426"/>
<path d="M72.1502 18.9C71.7502 18.9 71.5502 18.5 71.4502 18.4C71.4502 18.4 71.4502 18.3999 71.4502 18.2999L71.5502 18.2C71.5502 18.2 71.5502 18.1999 71.6502 18.2999C71.7502 18.4999 71.9502 18.8 72.3502 18.7L72.1502 18.9Z" fill="#242426"/>
<path d="M70.7501 17.5H70.6501L70.7501 18.1H70.8501L70.7501 17.5Z" fill="#242426"/>
<path d="M73.9501 17.6L73.8501 18.1H73.9501L74.0501 17.6H73.9501Z" fill="#242426"/>
<path d="M73.55 15.5C73.55 15.5 73.9501 16.5 73.9501 17.4L74.1501 16.9L73.9501 15.9L73.55 15.5Z" fill="#AB7546"/>
<path d="M71.1501 15.5L70.8501 17.2L70.6501 16.7L70.9501 15.2L71.1501 15.5Z" fill="#AB7546"/>
<path d="M73.55 19.2C72.35 20.1 71.65 19.4 71.25 19C71.45 19.3 71.55 19.6 71.85 19.7L71.75 20.1C72.25 20.4 72.65 20.3 73.15 20.2L73.05 19.7C73.25 19.5 73.45 19.3 73.55 19.2Z" fill="#D89E00"/>
<path d="M72.45 19.9C72.05 19.9 71.75 19.7 71.75 19.7L71.85 19.6C71.85 19.6 72.55 20 73.05 19.5L73.15 19.6C72.95 19.9 72.65 19.9 72.45 19.9Z" fill="#242426"/>
<path d="M70.75 15.9L73.85 15.8C74.85 15.3 73.85 14.6 72.95 14.6C71.95 14.6 70.85 14.6 70.75 15.2C70.75 15.6 70.75 15.9 70.75 15.9Z" fill="#F4B301"/>
<path d="M71.1501 20.3L72.3501 21.3L71.2501 22.1L70.6501 20.9L71.1501 20.3Z" fill="#F4B301"/>
<path d="M73.6502 20.3L72.4502 21.3L73.5502 22.1L74.1502 20.9L73.6502 20.3Z" fill="#F4B301"/>
<path d="M69.9501 25.9C69.9501 25.9 70.8501 25.6 70.9501 25.3C71.1501 25 71.1501 24.8 71.4501 24.5C71.7501 24.2 72.2501 24.2 72.1501 24C72.0501 23.8 71.7501 23.8 71.3501 24C70.9501 24.2 70.3501 24.8 70.3501 24.8L69.0501 24L68.8501 25.1C69.1501 25.5 69.4501 25.8 69.9501 25.9Z" fill="#F7BCB2"/>
<path d="M74.8502 25.9C74.8502 25.9 73.9502 25.6 73.8502 25.3C73.6502 25 73.6502 24.8 73.3502 24.5C73.0502 24.2 72.5502 24.2 72.6502 24C72.7502 23.8 73.0502 23.8 73.4502 24C73.8502 24.2 74.4502 24.8 74.4502 24.8L75.7502 24L75.9502 25.1C75.5502 25.5 75.2502 25.8 74.8502 25.9Z" fill="#F7BCB2"/>
<path d="M75.3501 29.7H69.55L70.2501 23.7H74.6501L75.3501 29.7Z" fill="#AB7546"/>
<path d="M69.55 29.7001L70.6501 29.3H74.2501L75.3501 29.7001H69.55Z" fill="#8C5831"/>
<path d="M69.55 29.7L70.55 29.1L70.2501 23.7L69.55 29.7Z" fill="#8C5831"/>
<path d="M69.05 24.2C69.05 24.2 69.0501 23.6 69.1501 23.5C69.2501 23.4 71.1501 22.7 71.3501 23C71.4501 23.3 71.4501 23.9 71.3501 24C71.1501 24.3 71.05 24.2 71.05 24.4C71.05 24.6 70.65 24.6 70.55 24.7C70.55 24.7 70.4501 24.9 70.1501 25C69.9501 25 69.9501 24.8 69.8501 24.8C69.8501 24.8 69.5501 25 69.3501 24.8C69.2501 24.4 69.05 24.2 69.05 24.2Z" fill="#D89E00"/>
<path d="M69.05 24C69.05 24 69.0501 23.4 69.1501 23.3C69.2501 23.2 71.1501 22.5 71.3501 22.8C71.4501 23.1 71.4501 23.7 71.3501 23.8C71.1501 24.1 71.05 24 71.05 24.2C71.05 24.4 70.65 24.4 70.55 24.5C70.55 24.5 70.4501 24.7 70.1501 24.8C69.9501 24.8 69.9501 24.6 69.8501 24.6C69.8501 24.6 69.5501 24.8 69.3501 24.6C69.2501 24.2 69.05 24 69.05 24Z" fill="#F7BCB2"/>
<path d="M69.6501 23.5H69.55L69.8501 24.5H69.9501L69.6501 23.5Z" fill="#242426"/>
<path d="M70.2501 23.3H70.1501L70.4501 24.3H70.5501L70.2501 23.3Z" fill="#242426"/>
<path d="M70.85 23.1H70.75L70.95 24H71.05L70.85 23.1Z" fill="#242426"/>
<path d="M75.6501 24.2C75.6501 24.2 75.6501 23.6 75.5501 23.5C75.4501 23.4 73.5501 22.7 73.3501 23C73.2501 23.3 73.2501 23.9 73.3501 24C73.5501 24.3 73.6501 24.2 73.6501 24.4C73.6501 24.6 74.0501 24.6 74.1501 24.7C74.1501 24.7 74.2501 24.9 74.5501 25C74.7501 25 74.7501 24.8 74.8501 24.8C74.8501 24.8 75.1501 25 75.3501 24.8C75.4501 24.4 75.6501 24.2 75.6501 24.2Z" fill="#D89E00"/>
<path d="M75.6501 24C75.6501 24 75.6501 23.4 75.5501 23.3C75.4501 23.2 73.5501 22.5 73.3501 22.8C73.2501 23.1 73.2501 23.7 73.3501 23.8C73.5501 24.1 73.6501 24 73.6501 24.2C73.6501 24.4 74.0501 24.4 74.1501 24.5C74.1501 24.5 74.2501 24.7 74.5501 24.8C74.7501 24.8 74.7501 24.6 74.8501 24.6C74.8501 24.6 75.1501 24.8 75.3501 24.6C75.4501 24.2 75.6501 24 75.6501 24Z" fill="#F7BCB2"/>
<path d="M75.05 23.5L74.75 24.5H74.85L75.15 23.5H75.05Z" fill="#242426"/>
<path d="M74.4501 23.3L74.1501 24.3H74.2501L74.5501 23.3H74.4501Z" fill="#242426"/>
<path d="M73.8501 23.1L73.55 24H73.6501L73.8501 23.1Z" fill="#242426"/>
<path d="M72.9501 14.8C73.5501 14.8 74.2501 15.2 74.2501 15.6C74.5501 15.2 73.7501 14.7 73.0501 14.7C72.0501 14.7 70.9501 14.7 70.8501 15.3C71.1501 14.8 72.1501 14.8 72.9501 14.8Z" fill="#F4B301"/>
<path d="M71.3501 22.1L72.4501 21.5L73.5501 22.1L72.4501 21.3L71.3501 22.1Z" fill="#D89E00"/>
<path d="M79.5501 9.30005H76.6501L77.1501 10.5H80.3501L79.5501 9.30005Z" fill="#D83333"/>
<path d="M76.7501 9.30005H73.8501L74.0501 10.5H77.2501L76.7501 9.30005Z" fill="#F2F5C5"/>
<path d="M73.85 9.30005H70.95L70.75 10.5H73.95L73.85 9.30005Z" fill="#D83333"/>
<path d="M70.9501 9.30005H68.05L67.55 10.5H70.7501L70.9501 9.30005Z" fill="#F2F5C5"/>
<path d="M68.0501 9.30005H65.1501L64.3501 10.5H67.5501L68.0501 9.30005Z" fill="#D83333"/>
<path d="M80.3501 10.4H77.1501L77.2501 13.4H80.4501L80.3501 10.4Z" fill="#D89E00"/>
<path d="M77.1502 10.4H73.9502V13.4H77.1502V10.4Z" fill="#C9C9C9"/>
<path d="M73.95 10.4H70.75V13.4H73.95V10.4Z" fill="#D89E00"/>
<path d="M70.7502 10.4H67.5502L67.4502 13.4H70.6502L70.7502 10.4Z" fill="#C9C9C9"/>
<path d="M67.55 10.4H64.35L64.25 13.4H67.45L67.55 10.4Z" fill="#D89E00"/>
<path d="M79.5501 9.30005H76.6501L77.1501 10.5H80.3501L79.5501 9.30005Z" fill="#F4B301"/>
<path d="M76.7501 9.30005H73.8501L74.0501 10.5H77.2501L76.7501 9.30005Z" fill="white"/>
<path d="M73.85 9.30005H70.95L70.75 10.5H73.95L73.85 9.30005Z" fill="#F4B301"/>
<path d="M70.9501 9.30005H68.05L67.55 10.5H70.7501L70.9501 9.30005Z" fill="white"/>
<path d="M68.0501 9.30005H65.1501L64.3501 10.5H67.5501L68.0501 9.30005Z" fill="#F4B301"/>
<path d="M63.05 3.5H60.05V4.7H63.05V3.5Z" fill="#9C9C9C"/>
<path d="M66.4502 3.5H63.4502V4.7H66.4502V3.5Z" fill="#9C9C9C"/>
<path d="M64.75 4.90002H61.75V6.10002H64.75V4.90002Z" fill="#9C9C9C"/>
<path d="M80.1501 33H77.1501V34.2H80.1501V33Z" fill="#9C9C9C"/>
<path d="M83.55 33H80.55V34.2H83.55V33Z" fill="#9C9C9C"/>
<path d="M81.8501 34.5H78.8501V35.7H81.8501V34.5Z" fill="#9C9C9C"/>
<path d="M67.3501 38.1H64.3501V39.3H67.3501V38.1Z" fill="#9C9C9C"/>
<path d="M69.05 39.6H66.05V40.8H69.05V39.6Z" fill="#9C9C9C"/>
<path d="M82.4502 4.5H79.4502V5.7H82.4502V4.5Z" fill="#9C9C9C"/>
<path d="M84.1501 6H81.1501V7.2H84.1501V6Z" fill="#9C9C9C"/>
<path d="M77.05 46.4H74.05V47.6H77.05V46.4Z" fill="#9C9C9C"/>
<path d="M78.75 47.8H75.75V49H78.75V47.8Z" fill="#9C9C9C"/>
<path d="M85.4501 50.6H58.8501V53.4H85.4501V50.6Z" fill="#9C9C9C"/>
<path d="M86.1502 0H58.1501V1.8H86.1502V0Z" fill="#9C9C9C"/>
<path d="M46.3501 40H42.1501V31.2H43.6501C45.1501 31.2 46.3501 32.4 46.3501 34V40Z" fill="#2E343A"/>
<path d="M30.35 39.6L24.85 39.5L24.25 30.4L24.55 30.3C25.75 30.5 29.05 30.6001 29.55 33.2001L30.35 39.6Z" fill="#2E343A"/>
<path d="M55.8501 42.4001L62.7501 42.6L63.1501 35.9001L62.8501 35.8C61.2501 35.9 57.1501 35.8001 56.7501 37.7001L55.8501 42.4001Z" fill="#2E343A"/>
<path d="M57.8501 39.9C57.7501 39.9 57.7501 39.9 57.8501 39.9C57.2501 39.8 57.1501 39.2 57.1501 38.7C57.0501 38.1 57.1501 37.4 57.2501 36.6C57.3501 35.8 57.5501 35.1 57.7501 34.6C57.9501 34.2 58.2501 33.6 58.7501 33.6C59.2501 33.7 59.3501 34.3 59.3501 34.8C59.4501 35.4 59.3501 36.1 59.2501 36.9C59.1501 37.7 58.9501 38.4 58.7501 38.9C58.5501 39.4 58.2501 39.9 57.8501 39.9ZM58.4501 34.5C58.2501 34.8 58.0501 35.6 57.8501 36.7C57.6501 37.8 57.7501 38.6 57.8501 39C58.0501 38.7 58.2501 37.9 58.4501 36.8C58.6501 35.7 58.5501 34.9 58.4501 34.5Z" fill="#242426"/>
<path d="M50.8501 42.2001L50.9501 41.6C51.7501 40.5 51.8501 39.6001 51.6501 39.2001C51.4501 38.9001 50.3501 37.2001 50.3501 37.2001L49.8501 36.5C49.6501 36.2 48.5501 35.1 48.1501 35.1L47.3501 34.8C47.0501 34.8 46.7501 34.9001 46.5501 35.2001C45.1501 37.2001 45.6501 38.6 45.8501 39C46.1501 39.5 47.1501 41.8 47.1501 41.8V43L46.7501 44.2001L51.3501 44.6L50.9501 43.4001L50.8501 42.2001Z" fill="#F4B301"/>
<path d="M50.2501 42.0999C50.2501 41.6999 50.1501 41.2 50.0501 40.7C49.9501 40.5 49.9501 40.3 49.9501 39.9C49.9501 39.4 50.1501 39.2 50.2501 38.7C50.3501 38.1 50.2501 37.5999 50.1501 37.5999C50.0501 37.5999 49.9501 38.9 49.7501 38.9C49.5501 38.9 49.4501 38.4 48.9501 37.4C48.4501 36.5 48.2501 36.2999 48.0501 36.2999C47.6501 35.9999 47.4501 36.2 47.0501 35.9C46.7501 35.7 46.5501 35.5 46.5501 35.2C45.2501 37.1 45.7501 38.5 45.9501 38.9C46.2501 39.4 47.2501 41.7 47.2501 41.7L47.1501 43C47.1501 43 48.7501 43.6 50.3501 43.5C50.3501 43.4 50.2501 42.0999 50.2501 42.0999Z" fill="#4F78C4"/>
<path d="M48.55 35.2C48.55 35.2 48.95 35.4 49.15 35.7C49.15 35.7 48.35 35.9999 47.55 35.7999L48.55 35.2Z" fill="#F7BCB2"/>
<path d="M49.4501 36C50.1501 36.1 51.1501 36.4 51.3501 36.5C52.9501 37 53.6501 37.3 53.6501 37.3C53.6501 37.3 56.8501 36.3 57.6501 36.3C59.0501 36.4 56.2501 38 53.4501 38.7C53.4501 38.7 51.9501 38.3 50.2501 38.1C50.1501 38.1 50.0501 38.2 50.0501 38.3C50.0501 38.8 49.5501 40.1 48.7501 38.9C47.4501 37.2 48.7501 35.9 49.4501 36Z" fill="#F7BCB2"/>
<path d="M50.35 30.9C50.45 31.6 50.65 31.8 50.85 31.9C51.05 32 50.65 32.4 50.65 32.5C50.65 32.6 50.75 33.3 50.65 33.7C50.55 34.1 50.45 34.2 50.35 34.2C50.15 34.4 49.05 34.3 48.85 34.3C48.75 34.3 48.85 35.4 48.75 35.7C48.75 35.8 48.35 35.8 48.25 35.8C48.05 35.8 47.55 35.9 47.05 35.8C46.85 35.7 46.65 35.5 46.75 35.3C46.95 34.8 47.05 34.2 47.25 33.9C47.25 33.9 46.95 33.5 46.65 33.3C46.35 33.1 45.95 32.3 46.15 31.3C46.35 30.3 46.95 29.6 48.05 29.6C49.05 29.6 49.35 29.6 49.65 29.9C50.05 30.1 50.25 30.4 50.35 30.9Z" fill="#F7BCB2"/>
<path d="M50.0501 30.8C50.1501 30.7 50.4501 29.8 50.1501 29.5C49.9501 29.3 49.4501 29.2 49.0501 29.3C48.8501 29.3 48.6501 29.3 48.4501 29.3C48.1501 29.2 47.9501 29.2 47.6501 29.3C46.7501 29.5 46.5501 29.9 46.3501 30.2C45.2501 32.1 45.9501 33.2 46.7501 33.6C46.8501 33.7 47.0501 33.8 47.0501 34C47.0501 34.2 47.0501 34.6 47.1501 34.4C47.2501 34.2 47.8501 34 47.8501 33.9H47.9501C48.4501 33.7 48.7501 31.5 49.7501 31.1C49.9501 31.1 50.0501 31 50.0501 30.8Z" fill="#AB7546"/>
<path d="M49.2501 31.6C49.2501 31.6 49.0501 31.9 49.1501 32.2C49.2501 32.4 49.0501 32.5 48.8501 31.9C48.5501 31.3 49.2501 31.6 49.2501 31.6Z" fill="#AB7546"/>
<path d="M50.1502 31.7C50.1502 31.8 50.1502 31.8 50.0502 31.8C49.9502 31.8 49.9502 31.8 49.9502 31.7C49.9502 31.6 49.9502 31.6 50.0502 31.6C50.0502 31.7 50.1502 31.7 50.1502 31.7Z" fill="#292929"/>
<path d="M50.4501 33C50.2501 33 50.1501 32.9001 50.1501 32.9001L50.2501 32.8V32.9001V32.8C50.2501 32.8 50.4501 32.9 50.6501 32.8V32.9001C50.5501 33.0001 50.4501 33 50.4501 33Z" fill="#242426"/>
<path d="M49.0501 32.5C49.0501 32.5 48.8501 32 48.6501 31.9C48.4501 31.9 48.1501 32 48.1501 32.6C48.2501 33.2 48.6501 33.2 48.9501 33.2C49.1501 33.1 49.0501 32.5 49.0501 32.5Z" fill="#F7BCB2"/>
<path d="M48.6501 32.7001C48.6501 32.5001 48.5501 32.4001 48.5501 32.4001C48.4501 32.4001 48.4501 32.4001 48.4501 32.4001L48.3501 32.3001C48.3501 32.3001 48.4501 32.2001 48.5501 32.3001C48.6501 32.4001 48.7501 32.5001 48.7501 32.7001H48.6501Z" fill="#242426"/>
<path d="M48.5502 32.6H48.4502C48.4502 32.5 48.5502 32.4 48.7502 32.4V32.5C48.5502 32.5 48.5502 32.6 48.5502 32.6Z" fill="#242426"/>
<path d="M47.55 41.1C47.45 40.5 47.05 39.7 46.65 39.1C46.45 38.7 46.25 38.4 46.25 38.3C46.15 37.5 46.65 35.9 46.75 35.8H46.85C46.85 35.8 46.25 37.4001 46.35 38.2001C46.35 38.4001 46.55 38.6 46.75 39C47.15 39.6 47.55 40.4 47.65 41L47.55 41.1Z" fill="#242426"/>
<path d="M47.9501 29.3C47.2501 30.3 46.6501 30.4 46.3501 31C45.8501 32.1 46.0501 33.1 45.5501 34C44.8501 35.2 45.5501 35.6001 45.3501 36.4001C45.0501 37.7001 45.2501 39.3001 45.3501 39.4001C46.0501 40.3001 46.6501 40.5 47.7501 40.1C49.2501 39.6 49.4501 37.7 48.7501 36.8C47.5501 35.2 49.6501 34.0001 48.5501 33.2001C47.3501 32.3001 47.8501 30.1 47.9501 29.3Z" fill="#AB7546"/>
<path d="M57.6501 36.7C57.4501 37.8 57.5501 38.6 57.6501 39C57.7501 38.9 57.7501 38.6999 57.8501 38.5999C57.8501 38.1999 57.8501 37.4999 57.9501 36.7999C58.0501 35.7999 58.3501 34.8999 58.5501 34.5999C58.5501 34.3999 58.4501 34.3 58.4501 34.2C58.2501 34.4 57.7501 35.6 57.6501 36.7Z" fill="#D89E00"/>
<path d="M59.2502 34.9C59.2502 34.4 59.0502 33.8 58.6502 33.7C58.5502 33.7 58.5502 33.7 58.4502 33.7C58.8502 33.8 59.0502 34.4 59.0502 34.9C59.1502 35.5 59.0502 36.2 58.9502 37C58.8502 37.8 58.6502 38.5 58.4502 39C58.2502 39.4 58.0502 39.9 57.7502 40C57.7502 40 57.7502 40 57.8502 40H57.9502C58.3502 40 58.6502 39.5 58.8502 39C59.0502 38.5 59.2502 37.8 59.3502 37C59.2502 36.2 59.3502 35.4 59.2502 34.9Z" fill="#D89E00"/>
<path d="M57.05 36.5999C57.05 36.5999 57.05 36.3 57.65 36C57.75 35.9 57.85 35.9 57.85 35.9C58.35 35.7 58.55 35 58.65 35.4C58.75 35.7 58.45 35.9 58.45 35.9C58.45 35.9 58.65 36 58.75 35.9C58.75 35.9 59.25 35.6 59.35 35.2C59.35 35.2 59.65 35.4 59.65 35.7C59.65 36 59.15 36.7999 59.15 36.7999C59.15 36.7999 58.45 37.3 57.15 37V36.5999H57.05Z" fill="#F7BCB2"/>
<path d="M53.5502 37.7001H53.4502C53.4502 37.4001 53.6502 37.3 53.6502 37.3L53.7502 37.4001C53.7502 37.4001 53.5502 37.5001 53.5502 37.7001Z" fill="#242426"/>
<path d="M47.95 57C65.75 57 80.15 56.4 80.15 55.7C80.15 55 65.75 54.4 47.95 54.4C30.15 54.4 15.75 55 15.75 55.7C15.75 56.4 30.15 57 47.95 57Z" fill="#BDBDBD"/>
<path d="M82.0501 39.8H12.6501V50.9001H82.0501V39.8Z" fill="#D89E00"/>
<path d="M76.6502 55.2C79.5502 53.3 80.4502 49.5 78.6502 46.7C76.8502 43.9 73.0502 43.2 70.1502 45.1C67.2502 47 66.3502 50.8 68.1502 53.6C69.9502 56.4 73.7502 57.1 76.6502 55.2Z" fill="#455A64"/>
<path d="M24.9502 55.2C27.8502 53.3 28.7502 49.5 26.9502 46.7C25.1502 43.9 21.3502 43.2 18.4502 45.1C15.5502 47 14.6502 50.8 16.4502 53.6C18.2502 56.3 22.0502 57.1 24.9502 55.2Z" fill="#455A64"/>
<path d="M87.7501 42.6C87.5501 41.4 86.6501 40.5001 85.6501 39.9001C83.2501 38.4001 80.0501 36.0001 67.4501 35.2001C67.4501 35.2001 54.0501 27.3 42.0501 27.3C30.0501 27.3 25.4501 29.4001 14.7501 33.9001C14.7501 33.9001 9.65014 33.5 8.55014 34.5C7.45014 35.5 4.05014 45.3001 4.05014 45.9001C3.95014 46.5001 3.95014 49.2001 5.75014 49.9001C8.15014 50.8001 13.9501 51.3 13.9501 51.3H14.9501C14.7501 49.3 15.3501 47.2001 16.7501 45.4001C19.4501 42.2001 24.2501 41.7 27.3501 44.3C29.4501 46.1 30.2501 48.8001 29.6501 51.4001L66.9501 51.7001C66.5501 49.6001 67.1501 47.2001 68.7501 45.4001C71.4501 42.2001 76.2501 41.7 79.3501 44.3C81.5501 46.2 82.3501 49.1 81.5501 51.8H81.8501C81.8501 51.8 85.2501 51.3 86.9501 50.3C88.5501 49.5 88.1501 45.5 87.7501 42.6ZM26.0501 36.4001L24.9501 33.4001C24.9501 33.1001 25.1501 32.8001 25.4501 32.7001C27.9501 31.7001 34.7501 28.9 43.0501 29.6C57.1501 30.8001 64.3501 36.1 65.3501 36.8C65.3501 36.9 65.3501 36.9 65.3501 37L26.0501 36.4001Z" fill="#F4B301"/>
<path d="M77.5501 55.2C80.4501 53.3 81.3501 49.5 79.5501 46.7C77.7501 43.9 73.9501 43.2 71.0501 45.1C68.1501 47 67.2501 50.8 69.0501 53.6C70.8501 56.3 74.6501 57.1 77.5501 55.2Z" fill="#242426"/>
<path d="M71.8501 53C72.5501 53.6 73.55 53.9 74.55 53.8C75.45 53.7 76.35 53.2 77.05 52.5C78.45 50.9 78.2501 48.6 76.7501 47.3C76.0501 46.7 75.05 46.4 74.05 46.5C73.15 46.6 72.25 47.1 71.55 47.8C70.15 49.4 70.3501 51.7 71.8501 53Z" fill="#ADABAE"/>
<path d="M25.75 55.2C28.65 53.3 29.55 49.5 27.75 46.7C25.95 43.9 22.15 43.2 19.25 45.1C16.35 47 15.45 50.8 17.25 53.6C19.05 56.3 22.85 57.1 25.75 55.2Z" fill="#242426"/>
<path d="M20.1501 53C20.8501 53.6 21.8501 53.9 22.8501 53.8C23.7501 53.7 24.6501 53.2 25.3501 52.5C26.7501 50.9 26.5501 48.6 25.0501 47.3C24.3501 46.7 23.3501 46.4 22.3501 46.5C21.4501 46.6 20.5501 47.1 19.8501 47.8C18.4501 49.4 18.5501 51.7 20.1501 53Z" fill="#ADABAE"/>
<path d="M16.4502 45.8C16.2502 46 16.0502 46.2001 15.8502 46.4001C14.5502 47.9001 13.9502 49.6001 13.9502 51.4001H14.8502C14.6502 49.4001 15.1502 47.4 16.4502 45.8Z" fill="#D89E00"/>
<path d="M68.4501 45.8C68.2501 46 68.0501 46.2001 67.8501 46.4001C66.4501 48.0001 65.8501 50 65.9501 51.8H66.8501C66.5501 49.8 67.0501 47.6 68.4501 45.8Z" fill="#D89E00"/>
<path d="M77.55 50.8C76.95 51.5 76.05 52 75.05 52.1C74.05 52.2 73.15 51.9 72.35 51.3C71.45 50.5 71.05 49.4 71.05 48.3C70.05 49.8 70.35 51.9 71.75 53C72.45 53.6 73.45 53.9 74.45 53.8C75.35 53.7 76.25 53.2 76.95 52.5C77.55 51.8 77.85 51.0001 77.85 50.2001C77.85 50.4001 77.75 50.6 77.55 50.8Z" fill="#818382"/>
<path d="M23.75 52.5C22.75 52.6 21.85 52.3 21.05 51.7C19.75 50.7 19.45 48.9 20.05 47.5C19.95 47.6 19.85 47.7 19.75 47.8C18.35 49.4 18.55 51.7 20.05 53C20.75 53.6 21.75 53.9 22.75 53.8C23.65 53.7 24.55 53.2 25.25 52.5C25.55 52.2 25.75 51.8 25.85 51.5C25.35 52 24.55 52.4 23.75 52.5Z" fill="#818382"/>
<path d="M30.2502 39.7C30.9502 39.7 31.5502 39.4 31.5502 38.9C31.5502 38.5 30.9502 38.1 30.2502 38.1C29.5502 38.1 28.9502 38.4 28.9502 38.9C28.9502 39.4 29.5502 39.7 30.2502 39.7Z" fill="#D89E00"/>
<path d="M48.9501 39.3C48.9501 39.7 48.3501 40.1 47.6501 40.1C46.9501 40.1 46.3501 39.8 46.3501 39.3C46.3501 38.9 46.9501 38.5 47.6501 38.5C48.3501 38.5 48.9501 38.8 48.9501 39.3Z" fill="#D89E00"/>
<path d="M48.75 39.7L46.45 39.6C46.25 39.6 46.15 39.5 46.05 39.3C46.05 39.1 46.25 38.9 46.45 38.9L48.75 39C48.95 39 49.05 39.1 49.15 39.3C49.15 39.5 48.95 39.7 48.75 39.7Z" fill="#D89E00"/>
<path d="M31.3501 39.4L29.2501 39.3C29.0501 39.3 28.9501 39.1 28.8501 39C28.8501 38.8 29.0501 38.6 29.2501 38.6L31.3501 38.7C31.5501 38.7 31.6501 38.9 31.7501 39C31.7501 39.2 31.6501 39.4 31.3501 39.4Z" fill="#D89E00"/>
<path d="M25.9502 36.7L65.3502 37.4C65.3502 37.3 65.3502 37.2 65.3502 37.2C65.2502 37.2 65.2502 37.1 65.1502 37L26.0502 36.4H25.9502L24.9502 33.6C24.9502 33.7 24.9502 33.8 24.9502 33.9L25.9502 36.7Z" fill="#D89E00"/>
<path d="M11.8501 36.4H7.5501C7.1501 37.2 6.7501 38.3 6.3501 39.3H11.2501C11.5501 39.3 11.8501 39.2 12.0501 38.9L12.7501 38.1C13.0501 37.8 13.0501 37.3 12.8501 36.9C12.6501 36.6 12.2501 36.4 11.8501 36.4Z" fill="#DFDFDF"/>
<path d="M87.75 42.6C87.55 41.4 86.65 40.5001 85.65 39.9001C85.55 39.9001 85.55 39.8 85.45 39.8H83.25C82.85 39.8 82.45 40.1 82.35 40.5C82.25 40.8 82.35 41.2 82.55 41.5L83.65 42.7001C83.85 42.9001 84.15 43 84.35 43H87.85C87.75 42.8 87.75 42.7 87.75 42.6Z" fill="white"/>
<path d="M87.75 42.6C87.55 41.4 86.65 40.5001 85.65 39.9001C85.55 39.9001 85.55 39.8 85.45 39.8H83.25C82.85 39.8 82.45 40.1 82.35 40.5C82.25 40.8 82.35 41.2 82.55 41.5L83.65 42.7001C83.85 42.9001 84.15 43 84.35 43H87.85C87.75 42.8 87.75 42.7 87.75 42.6Z" fill="#DFDFDF"/>
<path d="M18.7501 39.7999C19.3501 38.9999 19.1501 37.7999 18.3501 37.1999C17.5501 36.5999 16.4501 36.7999 15.8501 37.5999C15.2501 38.3999 15.4501 39.5999 16.2501 40.1999C16.9501 40.6999 18.1501 40.5999 18.7501 39.7999Z" fill="#D89E00"/>
<path d="M17.2502 36.9C16.7502 36.9 16.2502 37.1 15.9502 37.5C16.2502 37.3 16.5502 37.2 16.9502 37.2C17.9502 37.2 18.7502 38 18.7502 39C18.7502 39.5 18.5502 39.9 18.2502 40.2C18.7502 39.9 19.0502 39.3 19.0502 38.7C19.0502 37.7 18.2502 36.9 17.2502 36.9Z" fill="#D89E00"/>
<path d="M85.4501 39.8H83.2501H83.1501C83.7501 40.1 84.2501 40.5 84.7501 40.8C85.6501 41.3 86.4501 42.1 86.7501 43H87.7501C87.7501 42.9 87.7501 42.7 87.6501 42.6C87.5501 41.6 86.8501 40.9 86.0501 40.3C85.9501 40.3 85.9501 40.2001 85.8501 40.2001L85.7501 40.1C85.7501 40.1 85.6501 40.1 85.6501 40C85.5501 40 85.5501 39.9001 85.4501 39.9001C85.5501 39.8001 85.5501 39.8 85.4501 39.8Z" fill="white"/>
<path d="M65.5501 36.8L65.4501 36.7C65.3501 36.6 58.3501 30.8 43.0501 29.4C37.2501 28.9 31.2501 30 25.1501 32.7C24.7501 32.9 24.5501 33.3 24.7501 33.8L27.0501 40.7C27.0501 40.8 27.1501 40.9 27.2501 40.9C28.2501 41.5 31.6501 43.7 31.2501 48.6C31.2501 48.8 31.2501 48.9 31.4501 49C31.6501 49.2 31.9501 49.3 32.2501 49.3H63.8501C64.1501 49.3 64.4501 49.1 64.7501 48.3C66.3501 42.9 65.5501 36.9 65.5501 36.8ZM31.6501 48.9C31.6501 48.8 31.5501 48.8 31.5501 48.7C31.9501 43.7 28.4501 41.3 27.3501 40.6L25.0501 33.7C24.9501 33.5 24.9501 33.2 25.2501 33.1C30.8501 30.6 36.4501 29.5 41.8501 29.7C41.7501 31.8 41.5501 43.6 43.6501 49H32.1501C31.9501 49.1 31.7501 49 31.6501 48.9ZM64.3501 48.3C64.2501 48.8 64.0501 49.1 63.8501 49.1H44.1501C42.0501 43.8 42.2501 31.9 42.3501 29.8C42.6501 29.8 42.8501 29.8 43.0501 29.9C57.5501 31.2 64.4501 36.5 65.1501 37C65.2501 37.7 65.8501 43.2 64.3501 48.3Z" fill="#D89E00"/>
<path d="M64.55 39.1H63.15C62.85 39.1 62.55 38.8 62.55 38.5V35.2C62.55 34.9 62.85 34.6 63.15 34.6H64.55C65.35 34.6 65.95 35.2 65.95 36V37.7C65.95 38.5 65.35 39.1 64.55 39.1Z" fill="#D89E00"/>
<path d="M65.4502 35.7C65.4502 35.4 64.9502 35 64.2502 35C63.5502 35 63.0502 35.2 62.9502 35.5C62.9502 35.8 63.4502 36.2 64.1502 36.2C64.8502 36.3 65.4502 36.1 65.4502 35.7Z" fill="#F4B301"/>
<path d="M64.35 38.5H63.35C62.95 38.5 62.65 38.2 62.65 37.8V35C62.65 35.1 62.55 35.2 62.55 35.3V38.4C62.55 38.8 62.85 39.1 63.25 39.1H64.25C65.15 39.1 65.95 38.4 65.95 37.4V37.2C65.75 38 65.15 38.5 64.35 38.5Z" fill="#D89E00"/>
</svg>
